<svg viewBox="0 0 900 320" width="900" height="320" xmlns="http://www.w3.org/2000/svg">
  <rect x="0" y="0" width="900" height="320" fill="#ffffff"/>
  <defs>
    <marker id="a4" viewBox="0 0 10 10" refX="8" refY="5" markerWidth="7" markerHeight="7" orient="auto-start-reverse">
      <path d="M0,0 L10,5 L0,10 z" fill="#1b232c"/>
    </marker>
    <marker id="a4a" viewBox="0 0 10 10" refX="8" refY="5" markerWidth="7" markerHeight="7" orient="auto-start-reverse">
      <path d="M0,0 L10,5 L0,10 z" fill="#1e7a8c"/>
    </marker>
  </defs>

  <line x1="640" y1="24" x2="670" y2="24" stroke="#1b232c" stroke-width="1.4"/>
  <text x="678" y="28" font-family="Arial, sans-serif" font-size="10.5" fill="#1b232c" opacity=".7">today</text>
  <line x1="730" y1="24" x2="760" y2="24" stroke="#1e7a8c" stroke-width="1.6" stroke-dasharray="4 3"/>
  <text x="768" y="28" font-family="Arial, sans-serif" font-size="10.5" fill="#145a68">proposed</text>

  <rect x="20" y="130" width="100" height="56" rx="8" fill="none" stroke="#1b232c" stroke-width="1.4"/>
  <text x="70" y="163" text-anchor="middle" font-family="Arial, sans-serif" font-size="11" fill="#1b232c">Browser</text>

  <rect x="160" y="130" width="120" height="56" rx="8" fill="none" stroke="#1b232c" stroke-width="1.4"/>
  <text x="220" y="158" text-anchor="middle" font-family="Arial, sans-serif" font-size="11" fill="#1b232c">Frontend</text>
  <text x="220" y="173" text-anchor="middle" font-family="Arial, sans-serif" font-size="9.5" fill="#1b232c" opacity=".65">Next.js BFF</text>

  <rect x="320" y="130" width="130" height="56" rx="8" fill="none" stroke="#1b232c" stroke-width="1.4"/>
  <text x="385" y="153" text-anchor="middle" font-family="Arial, sans-serif" font-size="11" fill="#1b232c">Backend</text>
  <text x="385" y="167" text-anchor="middle" font-family="Arial, sans-serif" font-size="9" fill="#1b232c" opacity=".65">Cloud Run</text>
  <text x="385" y="204" text-anchor="middle" font-family="Arial, sans-serif" font-size="9.5" fill="#1b232c" opacity=".65">min-instances: 0</text>
  <text x="385" y="217" text-anchor="middle" font-family="Arial, sans-serif" font-size="9.5" fill="#145a68">→ 1 (proposed)</text>

  <rect x="500" y="130" width="110" height="56" rx="8" fill="none" stroke="#1e7a8c" stroke-width="1.4" stroke-dasharray="4 3"/>
  <text x="555" y="153" text-anchor="middle" font-family="Arial, sans-serif" font-size="11" fill="#145a68">Redis</text>
  <text x="555" y="167" text-anchor="middle" font-family="Arial, sans-serif" font-size="9" fill="#145a68" opacity=".85">proposed cache</text>

  <rect x="660" y="130" width="120" height="56" rx="8" fill="none" stroke="#1b232c" stroke-width="1.4"/>
  <text x="720" y="153" text-anchor="middle" font-family="Arial, sans-serif" font-size="11" fill="#1b232c">BigQuery</text>
  <text x="720" y="167" text-anchor="middle" font-family="Arial, sans-serif" font-size="9" fill="#1b232c" opacity=".65">view</text>

  <rect x="660" y="240" width="120" height="50" rx="8" fill="none" stroke="#1b232c" stroke-width="1.4"/>
  <text x="720" y="262" text-anchor="middle" font-family="Arial, sans-serif" font-size="11" fill="#1b232c">Sheets</text>
  <text x="720" y="276" text-anchor="middle" font-family="Arial, sans-serif" font-size="9" fill="#1b232c" opacity=".65">source data</text>

  <line x1="120" y1="158" x2="160" y2="158" stroke="#1b232c" stroke-width="1.4" marker-end="url(#a4)"/>
  <line x1="280" y1="158" x2="320" y2="158" stroke="#1b232c" stroke-width="1.4" marker-end="url(#a4)"/>
  <text x="300" y="118" text-anchor="middle" font-family="Arial, sans-serif" font-size="9.5" fill="#1b232c" opacity=".65">N parallel calls</text>

  <line x1="450" y1="150" x2="500" y2="150" stroke="#1e7a8c" stroke-width="1.6" stroke-dasharray="4 3" marker-end="url(#a4a)"/>
  <text x="475" y="118" text-anchor="middle" font-family="Arial, sans-serif" font-size="9.5" fill="#145a68">check cache</text>

  <line x1="450" y1="164" x2="660" y2="150" stroke="#1b232c" stroke-width="1.4" marker-end="url(#a4)"/>
  <text x="555" y="200" text-anchor="middle" font-family="Arial, sans-serif" font-size="9.5" fill="#1b232c" opacity=".65">SELECT * (today)</text>
  <line x1="450" y1="172" x2="660" y2="166" stroke="#1e7a8c" stroke-width="1.6" stroke-dasharray="4 3" marker-end="url(#a4a)"/>
  <text x="555" y="223" text-anchor="middle" font-family="Arial, sans-serif" font-size="9.5" fill="#145a68">SELECT cols WHERE… (proposed)</text>

  <line x1="720" y1="186" x2="720" y2="240" stroke="#1b232c" stroke-width="1.4" marker-end="url(#a4)"/>
  <text x="800" y="208" text-anchor="middle" font-family="Arial, sans-serif" font-size="9.5" fill="#1b232c" opacity=".65">live read</text>
  <text x="800" y="220" text-anchor="middle" font-family="Arial, sans-serif" font-size="9.5" fill="#1b232c" opacity=".65">per query (today)</text>
  <line x1="660" y1="270" x2="500" y2="270" stroke="#1e7a8c" stroke-width="1.6" stroke-dasharray="4 3"/>
  <text x="580" y="290" text-anchor="middle" font-family="Arial, sans-serif" font-size="9.5" fill="#145a68">proposed: scheduled load → native table</text>
</svg>
